<svg width="88" height="88" viewBox="0 0 88 88" fill="none" xmlns="http://www.w3.org/2000/svg">
<g clip-path="url(#clip0_4125_770)">
<path d="M0 0H88V88H0V0Z" fill="white"/>
<path d="M44.0268 2.29807C44.0891 2.29634 44.1514 2.29519 44.2137 2.29462C45.9284 2.27723 47.6696 2.42256 49.3688 2.64398C49.6479 2.68107 49.9266 2.72097 50.2049 2.76368C50.4833 2.80639 50.7611 2.8519 51.0385 2.9002C51.3159 2.94851 51.5929 2.99961 51.8693 3.0535C52.1457 3.10739 52.4215 3.16406 52.6967 3.22351C52.9719 3.28296 53.2465 3.34517 53.5205 3.41015C53.7945 3.47513 54.0678 3.54287 54.3404 3.61336C54.613 3.68385 54.8849 3.75708 55.1561 3.83305C55.4272 3.90902 55.6976 3.98771 55.9671 4.06913C56.2367 4.15055 56.5054 4.23468 56.7732 4.32151C57.0411 4.40834 57.3081 4.49786 57.5741 4.59008C57.8401 4.68229 58.1053 4.77717 58.3694 4.87473C58.6336 4.97229 58.8967 5.0725 59.1589 5.17536C59.421 5.27822 59.682 5.38371 59.942 5.49183C60.202 5.59995 60.4609 5.71068 60.7186 5.82402C60.9764 5.93736 61.233 6.05328 61.4885 6.17179C61.7439 6.2903 61.9981 6.41137 62.2511 6.53501C62.5041 6.65864 62.7558 6.78481 63.0063 6.91352C63.2567 7.04222 63.5058 7.17344 63.7536 7.30716C64.0014 7.44089 64.2479 7.57711 64.4929 7.7158C64.738 7.85449 64.9816 7.99564 65.2238 8.13925C65.466 8.28285 65.7068 8.42888 65.946 8.57734C66.1853 8.72581 66.4231 8.87665 66.6593 9.02985C66.8955 9.1831 67.1302 9.33874 67.3633 9.49675C67.5964 9.6547 67.8279 9.815 68.0578 9.97765C68.2876 10.1403 68.5158 10.3052 68.7424 10.4725C68.9689 10.6397 69.1937 10.8092 69.4169 10.981C69.64 11.1528 69.8613 11.3268 70.081 11.503C70.3006 11.6793 70.5184 11.8577 70.7344 12.0383C70.9504 12.2189 71.1646 12.4017 71.3769 12.5866C71.5893 12.7716 71.7997 12.9586 72.0083 13.1478C72.2169 13.337 72.4235 13.5282 72.6282 13.7216C72.8329 13.915 73.0357 14.1104 73.2365 14.3078C73.4762 14.5446 73.713 14.7842 73.947 15.0267C74.1809 15.2692 74.4118 15.5145 74.6398 15.7626C74.8678 16.0107 75.0928 16.2615 75.3147 16.515C75.5366 16.7686 75.7555 17.0248 75.9712 17.2835C76.1869 17.5424 76.3995 17.8038 76.6088 18.0678C76.8182 18.3318 77.0244 18.5983 77.2274 18.8672C77.4303 19.1362 77.63 19.4076 77.8263 19.6814C78.0227 19.9552 78.2157 20.2313 78.4054 20.5098C78.5951 20.7883 78.7814 21.069 78.9643 21.352C79.1472 21.635 79.3266 21.9201 79.5026 22.2075C79.6786 22.4948 79.8511 22.7842 80.0201 23.0757C80.1891 23.3672 80.3545 23.6607 80.5164 23.9562C80.6782 24.2518 80.8365 24.5492 80.9912 24.8485C81.1459 25.1479 81.2969 25.449 81.4443 25.752C81.5917 26.055 81.7354 26.3597 81.8754 26.6662C82.0154 26.9727 82.1517 27.2809 82.2843 27.5906C82.4169 27.9004 82.5457 28.2117 82.6707 28.5246C82.7957 28.8375 82.9169 29.1518 83.0343 29.4677C83.1517 29.7835 83.2653 30.1007 83.375 30.4193C83.4847 30.7379 83.5906 31.0577 83.6926 31.3788C83.7945 31.7 83.8926 32.0223 83.9868 32.3458C84.081 32.6693 84.1713 32.994 84.2576 33.3197C84.3439 33.6453 84.4263 33.972 84.5048 34.2997C84.5832 34.6274 84.6576 34.956 84.7281 35.2855C84.7986 35.615 84.865 35.9452 84.9275 36.2763C84.9899 36.6075 85.0484 36.9393 85.1029 37.2717C85.1573 37.6043 85.2077 37.9374 85.254 38.2712C85.3004 38.6049 85.3428 38.9392 85.3811 39.2739C85.4193 39.6087 85.4536 39.9439 85.4837 40.2795C85.5139 40.615 85.54 40.9509 85.562 41.2872C85.5841 41.6234 85.6021 41.9598 85.6159 42.2964C85.6298 42.6331 85.6397 42.9699 85.6454 43.3068C85.651 43.651 85.6524 43.9952 85.6495 44.3395C85.6466 44.6838 85.6394 45.0279 85.628 45.372C85.6166 45.7161 85.6009 46.06 85.5809 46.4037C85.561 46.7475 85.5368 47.0909 85.5084 47.4339C85.48 47.7771 85.4473 48.1197 85.4104 48.462C85.3734 48.8043 85.3322 49.1461 85.2869 49.4874C85.2415 49.8287 85.1919 50.1694 85.138 50.5094C85.0842 50.8494 85.0261 51.1887 84.9639 51.5273C84.9017 51.866 84.8353 52.2038 84.7647 52.5407C84.6941 52.8777 84.6193 53.2137 84.5404 53.5488C84.4615 53.8839 84.3784 54.218 84.2912 54.551C84.204 54.8841 84.1127 55.2161 84.0173 55.5469C83.9219 55.8776 83.8224 56.2072 83.7188 56.5355C83.6152 56.8638 83.5076 57.1908 83.3959 57.5165C83.2842 57.8421 83.1685 58.1664 83.0488 58.4892C82.9291 58.812 82.8054 59.1332 82.6778 59.453C82.5501 59.7727 82.4185 60.0908 82.283 60.4073C82.1475 60.7238 82.008 61.0385 81.8647 61.3515C81.7213 61.6646 81.5741 61.9758 81.4231 62.2851C81.272 62.5945 81.1172 62.902 80.9585 63.2075C80.7999 63.513 80.6375 63.8166 80.4713 64.1181C80.3051 64.4196 80.1353 64.719 79.9617 65.0163C79.7881 65.3137 79.6108 65.6088 79.4299 65.9016C79.249 66.1946 79.0645 66.4852 78.8764 66.7736C78.6883 67.0619 78.4967 67.3479 78.3015 67.6316C78.1063 67.9152 77.9077 68.1963 77.7055 68.475C77.5034 68.7536 77.2978 69.0298 77.0888 69.3034C76.8798 69.577 76.6675 69.8479 76.4518 70.1163C76.2361 70.3846 76.0171 70.6503 75.7949 70.9132C75.5726 71.1761 75.3471 71.4362 75.1184 71.6936C74.8897 71.9509 74.6578 72.2053 74.4228 72.4569C74.1878 72.7085 73.9496 72.9571 73.7085 73.2028C65.7225 81.3427 55.3975 85.6022 44.0262 85.6983C41.9305 85.6791 39.8445 85.5642 37.7699 85.2525C37.5078 85.2124 37.2462 85.1697 36.9849 85.1245C36.7237 85.0793 36.4629 85.0317 36.2025 84.9815C35.9422 84.9313 35.6823 84.8787 35.423 84.8235C35.1636 84.7684 34.9049 84.7108 34.6466 84.6507C34.3884 84.5906 34.1308 84.5281 33.8737 84.463C33.6167 84.398 33.3603 84.3305 33.1046 84.2606C32.8488 84.1907 32.5938 84.1184 32.3395 84.0436C32.0851 83.9688 31.8315 83.8916 31.5786 83.8119C31.3257 83.7322 31.0736 83.6502 30.8223 83.5658C30.571 83.4813 30.3205 83.3945 30.0708 83.3052C29.8211 83.2159 29.5724 83.1243 29.3245 83.0303C29.0766 82.9363 28.8297 82.8399 28.5836 82.7412C28.3375 82.6424 28.0924 82.5413 27.8483 82.4379C27.6042 82.3345 27.3611 82.2287 27.1189 82.1206C26.8768 82.0126 26.6358 81.9022 26.3958 81.7895C26.1558 81.6768 25.9169 81.5619 25.6792 81.4446C25.4413 81.3274 25.2047 81.2079 24.9692 81.0861C24.7337 80.9643 24.4994 80.8403 24.2663 80.714C24.0331 80.5877 23.8012 80.4593 23.5705 80.3286C23.3398 80.1979 23.1104 80.065 22.8823 79.9299C22.6542 79.7948 22.4273 79.6576 22.2018 79.5182C21.9763 79.3787 21.7521 79.2372 21.5293 79.0935C21.3065 78.9498 21.0851 78.804 20.8651 78.6561C20.6451 78.5081 20.4265 78.358 20.2094 78.2059C19.9922 78.0538 19.7765 77.8996 19.5624 77.7434C19.3482 77.5872 19.1355 77.4289 18.9243 77.2685C18.7131 77.1082 18.5035 76.9459 18.2954 76.7816C18.0874 76.6173 17.8809 76.451 17.676 76.2827C17.4711 76.1145 17.2678 75.9442 17.0662 75.7721C16.8646 75.5999 16.6647 75.4258 16.4663 75.2498C16.268 75.0738 16.0714 74.896 15.8765 74.7163C15.6816 74.5365 15.4885 74.3549 15.297 74.1715C15.0459 73.9339 14.7977 73.6932 14.5526 73.4495C14.3074 73.2057 14.0654 72.9589 13.8264 72.709C13.5874 72.4592 13.3516 72.2064 13.119 71.9506C12.8864 71.6949 12.657 71.4363 12.4308 71.1749C12.2046 70.9134 11.9817 70.6491 11.7621 70.3821C11.5425 70.115 11.3263 69.8453 11.1134 69.5728C10.9006 69.3004 10.6912 69.0253 10.4852 68.7476C10.2793 68.47 10.0768 68.1898 9.87791 67.907C9.67893 67.6243 9.48354 67.3391 9.29173 67.0515C9.09986 66.7639 8.91166 66.4739 8.72712 66.1815C8.54251 65.8892 8.3616 65.5946 8.18439 65.2978C8.00717 65.0009 7.8337 64.7019 7.66396 64.4007C7.49422 64.0996 7.32827 63.7963 7.16612 63.4909C7.00396 63.1856 6.84564 62.8783 6.69116 62.569C6.53669 62.2597 6.3861 61.9485 6.23941 61.6355C6.09271 61.3224 5.94994 61.0076 5.81112 60.6909C5.6723 60.3743 5.53745 60.0559 5.40658 59.736C5.27571 59.416 5.14887 59.0944 5.02604 58.7712C4.90321 58.4481 4.78443 58.1234 4.66972 57.7972C4.55501 57.4711 4.44439 57.1436 4.33787 56.8147C4.23134 56.4858 4.12894 56.1556 4.03067 55.8241C3.9324 55.4927 3.83829 55.16 3.74833 54.8262C3.65838 54.4924 3.57261 54.1575 3.49102 53.8215C3.40944 53.4855 3.33207 53.1486 3.25891 52.8108C3.18574 52.4729 3.11682 52.1341 3.05212 51.7945C2.98744 51.4549 2.927 51.1145 2.87081 50.7734C2.81463 50.4323 2.76271 50.0905 2.71508 49.7481C2.66744 49.4056 2.62409 49.0627 2.58502 48.7191C2.54596 48.3756 2.51119 48.0317 2.48072 47.6873C2.45026 47.3429 2.4241 46.9982 2.40225 46.6532C2.3804 46.3081 2.36286 45.9629 2.34964 45.6174C2.33642 45.2719 2.32752 44.9263 2.32294 44.5806C2.31807 44.2414 2.31736 43.9021 2.3208 43.5629C2.32425 43.2236 2.33185 42.8844 2.34361 42.5453C2.35537 42.2062 2.37129 41.8673 2.39135 41.5286C2.41142 41.1899 2.43564 40.8515 2.464 40.5134C2.49237 40.1753 2.52487 39.8376 2.56151 39.5003C2.59815 39.163 2.63892 38.8262 2.68382 38.4899C2.72872 38.1536 2.77773 37.8178 2.83086 37.4827C2.88399 37.1476 2.94122 36.8132 3.00255 36.4795C3.06387 36.1458 3.12928 35.8129 3.19877 35.4808C3.26825 35.1487 3.3418 34.8175 3.4194 34.4872C3.49701 34.1569 3.57865 33.8276 3.66433 33.4993C3.75001 33.171 3.83969 32.8438 3.9334 32.5177C4.0271 32.1916 4.12478 31.8668 4.22644 31.5431C4.32811 31.2193 4.43372 30.8969 4.54329 30.5758C4.65286 30.2547 4.76634 29.935 4.88375 29.6166C5.00116 29.2983 5.12245 28.9814 5.24762 28.6661C5.37279 28.3507 5.50181 28.037 5.63467 27.7248C5.76754 27.4126 5.90421 27.1021 6.04469 26.7932C6.18517 26.4844 6.32941 26.1773 6.47741 25.872C6.62542 25.5667 6.77714 25.2632 6.93259 24.9616C7.08803 24.66 7.24715 24.3604 7.40994 24.0627C7.57273 23.765 7.73914 23.4694 7.90917 23.1758C8.07922 22.8821 8.25283 22.5906 8.43001 22.3013C8.60717 22.0119 8.78788 21.7248 8.97213 21.4399C9.15632 21.1549 9.34401 20.8723 9.53519 20.592C9.72631 20.3116 9.92088 20.0337 10.1189 19.7582C10.3168 19.4826 10.5181 19.2095 10.7228 18.939C10.9274 18.6683 11.1353 18.4002 11.3466 18.1347C11.5578 17.8692 11.7723 17.6063 11.99 17.346C12.2076 17.0857 12.4285 16.8282 12.6525 16.5734C12.8764 16.3185 13.1035 16.0665 13.3337 15.8172C13.5639 15.5679 13.797 15.3214 14.0332 15.0779C14.2235 14.8797 14.4157 14.6834 14.6098 14.489C14.8039 14.2946 14.9999 14.1022 15.1979 13.9117C15.3958 13.7212 15.5956 13.5327 15.7973 13.3462C15.9989 13.1597 16.2024 12.9752 16.4078 12.7926C16.6131 12.6101 16.8203 12.4297 17.0292 12.2513C17.2381 12.0729 17.4487 11.8966 17.6611 11.7224C17.8735 11.5481 18.0876 11.376 18.3034 11.206C18.5192 11.0361 18.7367 10.8682 18.9558 10.7025C19.175 10.5368 19.3957 10.3733 19.6181 10.212C19.8404 10.0507 20.0644 9.89166 20.2899 9.7348C20.5154 9.57793 20.7425 9.4233 20.9711 9.2709C21.1997 9.11857 21.4297 8.96849 21.6612 8.82068C21.8928 8.67281 22.1258 8.52729 22.3602 8.38412C22.5947 8.24091 22.8305 8.10005 23.0678 7.96153C23.305 7.823 23.5435 7.68683 23.7835 7.55303C24.0234 7.41923 24.2646 7.28781 24.5071 7.15879C24.7497 7.02977 24.9935 6.90315 25.2386 6.77896C25.4835 6.65477 25.7298 6.53301 25.9773 6.4137C26.2247 6.29438 26.4733 6.17752 26.723 6.06313C26.9728 5.94874 27.2237 5.83683 27.4757 5.72741C27.7276 5.61799 27.9807 5.51107 28.2348 5.40666C28.4888 5.30225 28.744 5.20037 29.0001 5.10101C29.2562 5.00165 29.5133 4.90484 29.7713 4.81058C30.0294 4.71631 30.2883 4.62461 30.5481 4.53547C30.808 4.44634 31.0687 4.35979 31.3303 4.27581C31.5919 4.19185 31.8542 4.11048 32.1174 4.0317C32.3806 3.95293 32.6445 3.87677 32.9092 3.80323C33.1738 3.72968 33.4393 3.65876 33.7054 3.59047C33.9714 3.52218 34.2382 3.45654 34.5055 3.39353C34.773 3.33052 35.041 3.27018 35.3096 3.21248C35.5782 3.15478 35.8473 3.09975 36.1169 3.04739C36.3866 2.99502 36.6568 2.94534 36.9274 2.89832C39.288 2.4979 41.6362 2.33445 44.0268 2.29807Z" fill="#EE6352"/>
<path d="M43.8419 7.38037C43.9782 7.38221 44.0725 7.3831 44.1972 7.44832C44.2567 7.5203 44.2808 7.55983 44.2958 7.65443C44.3722 8.13559 44.3062 8.72686 44.3069 9.21928C44.3085 10.3046 44.3468 11.4049 44.2966 12.4885L44.2881 12.4636L44.2741 12.5359L44.2509 12.5508C44.1264 12.5525 43.8734 12.5823 43.7818 12.5067C43.7325 11.9346 43.6926 7.74182 43.8419 7.38037Z" fill="white"/>
<path d="M40.0724 58.6435C40.4252 58.6381 40.7785 58.6423 41.1314 58.6421C41.1281 59.5376 41.1572 60.4432 41.1153 61.3374C40.7653 61.3445 40.4146 61.3394 40.0645 61.3387C40.061 60.4403 40.0636 59.5419 40.0724 58.6435Z" fill="white"/>
<path d="M46.7934 58.6504C47.153 58.6445 47.5134 58.6505 47.873 58.6512L47.8697 61.3981L46.7926 61.3983L46.7934 58.6504Z" fill="white"/>
<path d="M43.6328 13.2119C43.9679 13.2038 44.3002 13.2147 44.635 13.2287C44.7342 13.2969 44.8369 13.3711 44.9237 13.4548C45.2326 13.7528 45.2442 14.1622 45.2536 14.5617L44.3652 14.5638C43.8311 14.5665 43.297 14.5631 42.763 14.5535C42.7451 14.2026 42.7353 13.8473 42.9657 13.5536C43.1343 13.3386 43.3689 13.2436 43.6328 13.2119Z" fill="white"/>
<path d="M40.0754 65.8733L41.0791 65.8772L41.0819 69.1476L40.0585 69.0406L40.0754 65.8733Z" fill="white"/>
<path d="M41.3932 17.5879C43.1103 17.5586 44.8347 17.5734 46.552 17.5932C46.5607 17.8152 46.5601 18.0382 46.5629 18.2604L41.3946 18.2622L41.3932 17.5879Z" fill="white"/>
<path d="M46.7979 65.8764L47.9139 65.8751C47.9146 66.245 47.9733 68.879 47.8988 69.0109C47.8849 69.0355 47.8604 69.0524 47.8412 69.0731L46.7924 69.1682C46.7803 68.0709 46.7822 66.9737 46.7979 65.8764Z" fill="white"/>
<path d="M48.5116 58.6415L50.4143 58.6426L50.423 61.3943L48.498 61.392L48.5116 58.6415Z" fill="white"/>
<path d="M37.5632 58.6401C38.194 58.6288 38.8248 58.6291 39.4555 58.641C39.4553 59.141 39.5538 60.9845 39.4051 61.338L39.2842 61.3598L37.2788 61.3586C37.3533 60.449 37.5075 59.5554 37.5632 58.6401Z" fill="white"/>
<path d="M41.4733 42.8365C43.1636 42.8188 44.8539 42.8171 46.5442 42.8312C46.5673 43.3025 46.5668 43.778 46.5767 44.25L41.4571 44.254L41.4733 42.8365Z" fill="white"/>
<path d="M42.8529 15.1727C43.4428 15.1644 45.049 15.0556 45.5013 15.32C45.9486 15.5813 46.4693 16.1381 46.5744 16.6624C46.5989 16.7843 46.5718 16.8367 46.5046 16.9299C46.2658 17.0452 45.4025 16.9659 45.0957 16.9626L41.3791 16.9631C41.4153 16.718 41.4568 16.4712 41.5671 16.2472C41.8335 15.7062 42.3001 15.3728 42.8529 15.1727Z" fill="white"/>
<path d="M40.4848 18.8818C41.322 18.8417 42.1781 18.8915 43.0182 18.8926C44.4957 18.8837 45.9733 18.8834 47.4508 18.8916C47.32 19.23 47.1545 19.4722 46.918 19.7403C46.6471 19.9686 46.386 20.138 46.0395 20.2378C45.4995 20.3935 42.8637 20.3963 42.2587 20.3043C42.1788 20.2927 42.0996 20.2774 42.0211 20.2584C41.9426 20.2393 41.8652 20.2167 41.7888 20.1904C41.7124 20.1641 41.6375 20.1343 41.5639 20.101C41.4904 20.0677 41.4185 20.031 41.3484 19.9909C40.9112 19.7396 40.609 19.3717 40.4848 18.8818Z" fill="white"/>
<path d="M39.8652 44.9037C42.6352 44.8602 45.414 44.8944 48.1846 44.9024L48.1805 46.0238L39.8674 46.0239L39.8652 44.9037Z" fill="white"/>
<path d="M48.5103 65.8706L52.6491 65.8723C52.7433 66.5485 52.848 67.2231 52.9631 67.8961L52.1478 68.1302C50.9812 68.5372 49.7365 68.7627 48.5198 68.9564C48.5101 67.9278 48.5069 66.8992 48.5103 65.8706Z" fill="white"/>
<path d="M35.3348 65.8697C36.7003 65.8246 38.0775 65.8539 39.4442 65.868C39.441 66.877 39.4897 67.9026 39.4286 68.9091C39.3267 68.9665 39.2368 68.9319 39.123 68.9191C37.7003 68.6265 36.3509 68.4109 34.9771 67.9115C35.103 67.2321 35.2222 66.5514 35.3348 65.8697Z" fill="white"/>
<path d="M43.1597 58.6309C44.1667 58.6245 45.1736 58.6261 46.1805 58.6359L46.1822 61.4025L44.8248 61.4029C43.8026 61.4037 42.7805 61.3952 41.7584 61.3773L41.7498 58.6355L43.1597 58.6309Z" fill="white"/>
<path d="M38.5644 56.9971C42.5246 56.9661 46.4846 56.971 50.4447 57.012L50.448 58.0016L49.5644 58.004L37.6061 57.9858L37.6025 57.0094L38.5644 56.9971Z" fill="white"/>
<path d="M39.6828 46.6413C43.4342 46.5948 47.1969 46.6542 50.9492 46.6614C50.1664 47.4696 49.4649 47.6773 48.3627 47.7733C46.5715 47.8348 44.7605 47.7863 42.967 47.7891C41.7573 47.7911 40.3656 47.8777 39.1774 47.7549C38.3441 47.6686 37.5977 47.3575 37.0623 46.6981C37.9248 46.6186 38.8156 46.6569 39.6828 46.6413Z" fill="white"/>
<path d="M41.7042 65.8606C43.1988 65.8436 44.6959 65.8676 46.1908 65.8734C46.1906 66.9822 46.2403 68.1135 46.1825 69.2194C44.6795 69.344 43.2091 69.3108 41.7062 69.2134L41.7042 65.8606Z" fill="white"/>
<path d="M40.2046 48.4343C42.6928 48.379 45.1933 48.4286 47.683 48.427C47.6605 49.1031 47.5867 49.7651 47.5031 50.4358L47.4858 50.4811C47.4627 50.5008 47.4454 50.5311 47.4164 50.5402C47.2177 50.6023 46.2595 50.5432 45.9946 50.544L40.4472 50.5648C40.3256 49.8689 40.2744 49.1378 40.2046 48.4343Z" fill="white"/>
<path d="M37.4438 64.0447L52.3916 64.0184C52.4648 64.4254 52.4966 64.8446 52.543 65.2558L50.5207 65.2547L35.3853 65.2159C35.376 64.8288 35.3846 64.4402 35.3862 64.0529C36.0713 64.0382 36.7585 64.047 37.4438 64.0447Z" fill="white"/>
<path d="M41.8349 51.197L47.6182 51.1803C47.881 52.0769 48.2418 52.9426 48.5112 53.8382L46.1269 53.8429L39.3789 53.836C39.6726 52.9526 39.9839 52.0754 40.313 51.2045L41.8349 51.197Z" fill="white"/>
<path d="M33.8983 62.0083C40.5734 61.9494 47.2539 62.0174 53.9292 62.0391C53.9432 62.4791 53.932 62.922 53.9309 63.3624C51.6215 63.3979 49.3089 63.3775 46.999 63.3805L33.8839 63.3831L33.8983 62.0083Z" fill="white"/>
<path d="M35.4737 54.5047L52.5623 54.4849C52.5637 54.7754 52.6378 56.201 52.5008 56.383L35.4 56.3609C35.3861 55.8177 35.3525 55.2208 35.3983 54.6805C35.4065 54.5827 35.394 54.569 35.4737 54.5047Z" fill="white"/>
<path d="M42.954 20.9704L45.0771 20.9691C45.0734 22.5584 45.1321 24.1517 45.1666 25.7409L45.4411 36.5236L45.5429 40.2949C45.5576 40.8815 45.6357 41.5305 45.5606 42.1099C45.4524 42.1815 45.3233 42.1624 45.1985 42.1616L42.4739 42.1622C42.602 39.7065 42.6109 37.2335 42.6742 34.7746C42.8042 30.1739 42.8974 25.5725 42.954 20.9704Z" fill="white"/>
<path d="M16.7259 73.5204C19.4486 73.4844 22.1762 73.5164 24.8993 73.5164L39.4884 73.5172L71.3036 73.5186C69.6458 75.2607 67.2665 76.9331 65.2257 78.2149C63.3784 79.4214 61.374 80.4045 59.3342 81.2372C59.0159 81.3708 58.6958 81.5002 58.3741 81.6254C58.0523 81.7507 57.729 81.8717 57.4041 81.9884C57.0792 82.1051 56.7528 82.2176 56.425 82.3257C56.0971 82.4339 55.7679 82.5378 55.4373 82.6374C55.1068 82.737 54.7749 82.8322 54.4418 82.9231C54.1088 83.0139 53.7746 83.1004 53.4393 83.1825C53.104 83.2646 52.7676 83.3423 52.4302 83.4156C52.0929 83.4889 51.7546 83.5578 51.4154 83.6223C51.0762 83.6867 50.7363 83.7466 50.3956 83.8021C50.0548 83.8577 49.7134 83.9088 49.3713 83.9554C49.0292 84.0019 48.6865 84.044 48.3434 84.0816C48.0002 84.1192 47.6566 84.1524 47.3125 84.1809C46.9685 84.2095 46.6241 84.2336 46.2794 84.2532C45.9347 84.2727 45.5899 84.2878 45.2448 84.2983C44.8997 84.3089 44.5546 84.3149 44.2093 84.3165C43.8641 84.318 43.5189 84.3149 43.1737 84.3074C42.9194 84.3019 42.6652 84.2939 42.4111 84.2836C42.1569 84.2733 41.9029 84.2606 41.6491 84.2454C41.3952 84.2302 41.1415 84.2126 40.8879 84.1926C40.6344 84.1726 40.3811 84.1502 40.1279 84.1253C39.8748 84.1005 39.6219 84.0733 39.3693 84.0436C39.1167 84.0139 38.8645 83.9819 38.6125 83.9474C38.3605 83.913 38.1089 83.8761 37.8575 83.8368C37.6062 83.7975 37.3554 83.7559 37.1049 83.7118C36.8544 83.6678 36.6044 83.6214 36.3547 83.5725C36.1051 83.5237 35.856 83.4725 35.6074 83.4189C35.3588 83.3654 35.1107 83.3094 34.8631 83.2511C34.6156 83.1928 34.3686 83.1322 34.1222 83.0692C33.8758 83.0061 33.63 82.9408 33.3848 82.8731C33.1397 82.8054 32.8952 82.7354 32.6513 82.663C32.4075 82.5907 32.1644 82.516 31.922 82.439C31.6796 82.362 31.4379 82.2827 31.197 82.2011C30.9562 82.1195 30.7161 82.0356 30.4768 81.9494C30.2375 81.8632 29.999 81.7748 29.7614 81.684C29.5239 81.5933 29.2871 81.5003 29.0513 81.4051C28.8155 81.3099 28.5805 81.2124 28.3466 81.1126C28.1126 81.0129 27.8797 80.911 27.6476 80.8069C27.4156 80.7026 27.1846 80.5963 26.9545 80.4877C26.7246 80.3791 26.4956 80.2684 26.2677 80.1555C26.0398 80.0425 25.813 79.9274 25.5874 79.8102C25.3617 79.6929 25.1371 79.5735 24.9137 79.452C24.6903 79.3305 24.468 79.2068 24.247 79.081C24.0259 78.9552 23.8061 78.8273 23.5875 78.6974C23.3689 78.5674 23.1515 78.4354 22.9354 78.3013C22.7193 78.1672 22.5045 78.031 22.291 77.8927C22.0774 77.7545 21.8653 77.6143 21.6544 77.4721C21.4437 77.3298 21.2342 77.1855 21.0261 77.0393C20.8181 76.8931 20.6114 76.7449 20.4061 76.5946C19.139 75.6633 17.8166 74.6568 16.7259 73.5204Z" fill="white"/>
<path d="M8.20815 58.5474C14.7199 58.2453 20.2282 60.8723 25.7282 64.0516C27.9667 65.3456 30.2197 66.7437 32.6076 67.7467C36.1076 69.2169 40.3857 69.9868 44.1813 69.9905C48.2206 69.9944 52.4251 69.0438 56.1115 67.4052C57.4825 66.7958 58.7951 66.0649 60.0947 65.3175C62.1015 64.1633 64.0447 62.8908 66.1208 61.8607C70.6486 59.6142 75.6458 58.3729 80.7082 58.5568C80.9584 58.5659 81.2065 58.5795 81.4554 58.6072C81.0099 59.6752 80.5562 60.7297 80.0462 61.7691C79.8486 62.1792 79.6438 62.5858 79.4318 62.9888C79.2199 63.3918 79.001 63.791 78.7751 64.1863C78.5491 64.5817 78.3163 64.9729 78.0766 65.36C77.837 65.7472 77.5907 66.13 77.3376 66.5085C77.0845 66.8871 76.8249 67.261 76.5587 67.6305C76.2925 67.9999 76.02 68.3645 75.741 68.7244C75.4621 69.0843 75.1769 69.4391 74.8855 69.789C74.5941 70.1388 74.2967 70.4835 73.9932 70.823C73.3771 71.5136 72.7483 72.2059 72.0693 72.8357L37.0207 72.8663L24.9173 72.8641C21.9411 72.8686 18.958 72.9117 15.9829 72.8451C11.9855 68.9824 8.46313 63.8896 6.53326 58.663C7.09041 58.6078 7.64871 58.5693 8.20815 58.5474Z" fill="white"/>
<path d="M43.0029 3.715C43.3024 3.70638 43.6021 3.70119 43.9018 3.69942C44.2015 3.69765 44.5011 3.6993 44.8008 3.70438C45.1004 3.70945 45.3999 3.71795 45.6994 3.72986C45.9989 3.74177 46.2981 3.75711 46.5972 3.77586C46.8963 3.79461 47.1952 3.81677 47.4938 3.84235C47.7924 3.86793 48.0906 3.89691 48.3886 3.9293C48.6865 3.96169 48.984 3.99748 49.2812 4.03666C49.5783 4.07585 49.8749 4.11842 50.1711 4.16438C50.4672 4.21035 50.7628 4.25968 51.0578 4.31239C51.3528 4.36511 51.6472 4.42118 51.941 4.48061C52.2347 4.54005 52.5277 4.60283 52.82 4.66896C53.1123 4.73509 53.4038 4.80455 53.6945 4.87734C53.9853 4.95012 54.2751 5.02621 54.5641 5.10562C54.8531 5.18503 55.1411 5.26772 55.4282 5.35371C55.7153 5.4397 56.0014 5.52895 56.2864 5.62147C56.5715 5.71399 56.8554 5.80975 57.1383 5.90876C57.4502 6.01708 57.7608 6.12921 58.07 6.24515C58.3792 6.36109 58.6869 6.4808 58.9932 6.60429C59.2994 6.72779 59.6041 6.85501 59.9072 6.98598C60.2103 7.11695 60.5118 7.25161 60.8117 7.38998C61.1115 7.52834 61.4096 7.67036 61.7059 7.81604C62.0022 7.96171 62.2967 8.111 62.5894 8.26391C62.8821 8.41681 63.1729 8.57329 63.4617 8.73335C63.7505 8.89337 64.0374 9.05691 64.3222 9.22397C64.607 9.39103 64.8898 9.56159 65.1704 9.73564C65.4511 9.90964 65.7295 10.0871 66.0058 10.2679C66.2821 10.4488 66.5561 10.6329 66.8279 10.8205C67.0996 11.0081 67.3691 11.199 67.6362 11.3931C67.9033 11.5873 68.1679 11.7848 68.4301 11.9854C68.6924 12.1861 68.9521 12.39 69.2093 12.597C69.4666 12.8041 69.7212 13.0142 69.9733 13.2275C70.2254 13.4408 70.4748 13.6572 70.7217 13.8766C70.9684 14.0961 71.2124 14.3185 71.4538 14.5438C71.6951 14.7692 71.9336 14.9976 72.1693 15.2289C72.405 15.4601 72.6379 15.6942 72.8679 15.9311C73.0978 16.1681 73.3248 16.4079 73.5489 16.6504C73.773 16.8929 73.9941 17.1382 74.2122 17.3861C74.4302 17.6341 74.6452 17.8847 74.8571 18.138C75.0691 18.3912 75.2778 18.647 75.4835 18.9053C75.6891 19.1637 75.8916 19.4246 76.0908 19.6879C76.29 19.9513 76.486 20.217 76.6788 20.4851C76.8715 20.7533 77.0609 21.0237 77.247 21.2965C77.4331 21.5693 77.6158 21.8443 77.7951 22.1216C77.9744 22.3988 78.1503 22.6783 78.3228 22.9599C78.4953 23.2415 78.6643 23.5251 78.8299 23.8108C78.9954 24.0965 79.1574 24.3843 79.3158 24.674C79.4743 24.9637 79.6292 25.2553 79.7805 25.5488C79.9318 25.8423 80.0795 26.1376 80.2235 26.4348C80.3395 26.6764 80.453 26.9192 80.5642 27.1631C80.6753 27.407 80.784 27.6519 80.8903 27.8979C80.9966 28.1439 81.1005 28.391 81.2019 28.6391C81.3033 28.8872 81.4023 29.1363 81.4988 29.3863C81.5953 29.6364 81.6893 29.8873 81.7809 30.1392C81.8725 30.3911 81.9615 30.6439 82.0481 30.8975C82.1346 31.1512 82.2187 31.4057 82.3003 31.661C82.3818 31.9163 82.4608 32.1724 82.5373 32.4292C82.6138 32.6861 82.6877 32.9438 82.7591 33.2021C82.8305 33.4604 82.8993 33.7194 82.9656 33.9791C83.0319 34.2388 83.0956 34.4991 83.1567 34.76C83.2179 35.021 83.2765 35.2825 83.3325 35.5446C83.3884 35.8068 83.4418 36.0694 83.4926 36.3325C83.5434 36.5957 83.5916 36.8594 83.6372 37.1235C83.6827 37.3876 83.7257 37.6521 83.7661 37.917C83.8064 38.182 83.8442 38.4474 83.8793 38.7131C83.9145 38.9788 83.947 39.2448 83.9768 39.5112C84.0067 39.7775 84.034 40.0441 84.0586 40.311C84.0832 40.5779 84.1052 40.845 84.1245 41.1123C84.1438 41.3796 84.1605 41.6471 84.1746 41.9148C84.1886 42.1824 84.2 42.4502 84.2088 42.718C84.2175 42.9859 84.2237 43.2539 84.2272 43.5219C84.2307 43.7898 84.2315 44.0578 84.2297 44.3258C84.2278 44.5938 84.2234 44.8618 84.2163 45.1298C84.2091 45.3977 84.1994 45.6655 84.187 45.9332C84.1746 46.201 84.1596 46.4686 84.1419 46.7359C84.1242 47.0034 84.1039 47.2706 84.081 47.5377C84.058 47.8047 84.0324 48.0715 84.0042 48.338C83.976 48.6046 83.9451 48.8708 83.9116 49.1367C83.8781 49.4026 83.8421 49.6682 83.8033 49.9334C83.7646 50.1986 83.7233 50.4634 83.6793 50.7277C83.6354 50.9921 83.5888 51.2561 83.5397 51.5196C83.1152 53.7319 82.4648 55.8451 81.729 57.9694C75.556 57.4308 69.2062 59.2358 63.8918 62.3252C60.4656 64.3169 57.3561 66.4192 53.5538 67.6945C53.3437 66.4612 53.1642 65.2235 53.0153 63.9814C53.3533 63.9752 54.097 64.0865 54.3779 63.9118C54.5 63.836 54.522 63.756 54.5505 63.6215C54.6296 63.2486 54.6454 61.7535 54.4203 61.4731C54.3054 61.33 51.4756 61.3932 51.0727 61.3928L51.0766 57.0255C51.6011 57.0265 52.5683 57.1308 53.0269 56.9341C53.1709 56.7973 53.1904 56.5762 53.2058 56.3876C53.2456 55.8979 53.3146 54.3266 52.9726 53.9678C52.896 53.8874 52.8111 53.8713 52.705 53.8575C52.3107 53.8065 51.8778 53.8408 51.4791 53.8404L49.1882 53.838C48.9498 53.0696 48.172 51.3473 48.1338 50.6537C48.0972 49.9879 48.2624 49.1092 48.3282 48.4317C49.1914 48.4117 50.1298 48.1324 50.8302 47.6181C51.1835 47.3587 51.6801 46.8346 51.7143 46.385C51.7223 46.28 51.6906 46.1981 51.6079 46.1303C51.3631 45.9299 49.2354 46.0248 48.7789 46.0252C48.7743 45.6318 48.8134 45.2402 48.8164 44.8472C48.8176 44.6798 48.8194 44.4669 48.6763 44.3496C48.413 44.1338 47.5381 44.2489 47.1859 44.255C47.1789 43.8803 47.3141 42.5917 47.0629 42.3411C46.837 42.1157 46.4916 42.1751 46.2008 42.1812C46.1877 40.6726 46.1248 39.1649 46.0927 37.6567L45.7104 20.9535C46.0323 20.9171 46.3191 20.8404 46.6095 20.6968C47.3636 20.3238 47.8225 19.6936 48.0844 18.9108C48.2219 18.8968 48.4079 18.8895 48.5298 18.8173C48.6084 18.7708 48.6886 18.6561 48.6937 18.5604C48.6977 18.4881 48.6927 18.4326 48.6434 18.3788C48.4085 18.123 47.5288 18.2471 47.1939 18.2524C47.1774 17.6198 47.2537 16.9278 47.0921 16.3114C46.9086 15.6119 46.4516 15.1508 45.8469 14.8019C45.8548 14.4978 45.8731 14.1863 45.8228 13.8848C45.7272 13.3105 45.4086 12.9641 44.9505 12.6373L44.9496 9.35726C44.9509 8.71909 45.0368 7.95026 44.8895 7.33397C44.8502 7.1692 44.7077 7.04481 44.5948 6.92639C44.4203 6.82274 44.2776 6.74491 44.0706 6.73696C43.8203 6.72734 43.5625 6.80534 43.382 6.98446C43.2395 7.12589 43.1632 7.31134 43.1303 7.50659C43.0384 8.05233 43.099 8.66752 43.1001 9.22328L43.1007 12.5915C42.8543 12.7621 42.6171 12.9347 42.4358 13.1771C42.0841 13.647 42.0729 14.1956 42.1428 14.751C41.9023 14.9044 41.665 15.0559 41.46 15.2562C40.6318 16.0661 40.7743 17.1954 40.7766 18.2508C40.4162 18.2433 39.9644 18.1818 39.6137 18.2582C39.4798 18.2875 39.3962 18.3345 39.3241 18.4551C39.3088 18.5904 39.3259 18.6397 39.3819 18.758C39.4979 18.8705 39.6248 18.8795 39.7793 18.9078C39.8726 19.1609 39.9879 19.4131 40.1338 19.6404C40.6474 20.4407 41.3986 20.8034 42.3036 20.9942L42.0618 33.7735C42.0067 36.5661 41.8965 39.3558 41.8787 42.1494C41.6042 42.144 41.2068 42.0829 40.9859 42.2843C40.8885 42.3732 40.8408 42.4749 40.8203 42.6042C40.7733 42.9022 40.8335 43.8169 40.8133 44.2285C40.4627 44.2312 39.5164 44.1153 39.2873 44.3728C39.1068 44.576 39.2042 45.6892 39.2053 46.0207C38.7164 46.0236 36.5805 45.9209 36.2684 46.1046C36.1544 46.1718 36.1519 46.2085 36.1159 46.3277C36.164 46.64 36.3935 46.9087 36.6009 47.1377C37.41 48.0307 38.4245 48.3696 39.6035 48.4336C39.6486 49.1236 39.794 49.8574 39.7664 50.5439C39.736 51.2983 38.961 53.0439 38.6849 53.8531C38.1699 53.8575 35.2139 53.7888 34.9464 53.9225C34.8114 54.0966 34.7786 54.3024 34.7622 54.518C34.7266 54.9873 34.6783 56.6139 34.9437 56.9203C35.4288 57.113 36.4011 57.0126 36.952 57.0173C36.9694 58.4834 36.831 59.9161 36.6361 61.369C35.9153 61.3652 34.0644 61.2663 33.4557 61.4008C33.4129 61.4319 33.3877 61.4593 33.3663 61.5085C33.1799 61.9387 33.1956 63.4696 33.3692 63.9271C33.6147 64.1471 34.4181 64.0501 34.7653 64.0473C34.7805 65.3035 34.6473 66.5096 34.349 67.7303C31.7683 66.8338 29.4983 65.4763 27.1414 64.1249C21.6215 60.9596 16.3185 58.0273 9.77426 57.8838C8.59976 57.858 7.4466 57.9547 6.27859 58.0612C6.08849 57.5601 5.90893 57.0552 5.73989 56.5467C5.57087 56.038 5.41252 55.5261 5.26486 55.0109C5.11719 54.4956 4.98034 53.9776 4.85431 53.4567C4.72827 52.9357 4.61315 52.4124 4.50895 51.8866C4.40476 51.3609 4.31157 50.8332 4.22941 50.3036C4.14723 49.774 4.07614 49.2429 4.01613 48.7103C3.95613 48.1777 3.90727 47.6441 3.86953 47.1094C3.8318 46.5748 3.80524 46.0396 3.78984 45.5039C3.77675 45.174 3.76773 44.8441 3.76278 44.5139C3.75784 44.1839 3.75699 43.8538 3.76021 43.5238C3.76344 43.1937 3.77075 42.8637 3.78214 42.5338C3.79352 42.2038 3.80898 41.8741 3.82852 41.5446C3.84807 41.2151 3.87168 40.8858 3.89937 40.5569C3.92705 40.228 3.9588 39.8994 3.99462 39.5713C4.03042 39.2431 4.07029 38.9154 4.11421 38.5882C4.15812 38.2611 4.20607 37.9345 4.25807 37.6085C4.31006 37.2825 4.36607 36.9572 4.42611 36.6326C4.48615 36.308 4.55019 35.9842 4.61824 35.6612C4.68628 35.3382 4.75831 35.016 4.83433 34.6948C4.91034 34.3736 4.99032 34.0533 5.07426 33.7341C5.15819 33.4148 5.24606 33.0967 5.33786 32.7796C5.42967 32.4625 5.52538 32.1466 5.625 31.8319C5.72461 31.5172 5.82811 31.2037 5.93548 30.8916C6.04285 30.5794 6.15406 30.2687 6.26911 29.9592C6.38417 29.6499 6.50304 29.3419 6.62571 29.0354C6.74839 28.7289 6.87483 28.4241 7.00504 28.1208C7.13525 27.8174 7.2692 27.5157 7.40688 27.2157C7.54455 26.9156 7.68591 26.6174 7.83097 26.3209C7.97602 26.0243 8.12471 25.7296 8.27705 25.4368C8.4294 25.1439 8.58535 24.853 8.74491 24.564C8.90441 24.275 9.06749 23.988 9.23415 23.7031C9.40075 23.4181 9.57088 23.1352 9.74453 22.8545C9.91818 22.5737 10.0953 22.2951 10.2758 22.0188C10.4563 21.7425 10.6402 21.4684 10.8275 21.1965C11.0148 20.9247 11.2054 20.6552 11.3993 20.3881C11.5933 20.121 11.7906 19.8564 11.9911 19.5941C12.1916 19.3319 12.3954 19.0722 12.6023 18.8149C12.8092 18.5578 13.0193 18.3032 13.2325 18.0512C13.4457 17.7992 13.662 17.5499 13.8815 17.3032C14.1008 17.0566 14.3233 16.8127 14.5487 16.5715C14.7757 16.3264 15.0057 16.0841 15.2387 15.8448C15.4717 15.6054 15.7077 15.369 15.9466 15.1354C16.1856 14.902 16.4274 14.6715 16.6721 14.4441C16.9168 14.2166 17.1643 13.9922 17.4145 13.7709C17.6648 13.5497 17.9179 13.3316 18.1736 13.1166C18.4294 12.9016 18.6878 12.6899 18.9488 12.4813C19.2098 12.2729 19.4734 12.0676 19.7395 11.8657C20.0056 11.6638 20.2742 11.4652 20.5453 11.27C20.8164 11.0748 21.0899 10.883 21.3659 10.6946C21.6418 10.5062 21.92 10.3212 22.2005 10.1398C22.481 9.95836 22.7637 9.78044 23.0486 9.60605C23.3336 9.43165 23.6207 9.26084 23.9099 9.0936C24.1991 8.92643 24.4903 8.76286 24.7837 8.6029C25.077 8.44293 25.3722 8.28665 25.6694 8.13408C25.9666 7.9815 26.2656 7.83265 26.5665 7.68754C26.8675 7.54242 27.1702 7.40108 27.4746 7.26352C27.7791 7.12596 28.0852 6.99223 28.393 6.86231C28.7007 6.7324 29.0101 6.60634 29.321 6.48415C29.6319 6.36196 29.9443 6.24367 30.2582 6.12927C30.5721 6.01488 30.8874 5.90442 31.2041 5.7979C31.5207 5.69138 31.8386 5.58882 32.1578 5.49024C32.477 5.39166 32.7974 5.29707 33.1189 5.20648C33.4405 5.11589 33.7631 5.02934 34.0868 4.94681C34.4106 4.86427 34.7353 4.78579 35.0609 4.71137C35.3866 4.63694 35.7132 4.5666 36.0406 4.50032C36.3681 4.43405 36.6963 4.37188 37.0253 4.31379C37.3543 4.25572 37.6839 4.20175 38.0143 4.1519C38.3446 4.10206 38.6755 4.05634 39.007 4.01476C39.3385 3.97317 39.6705 3.93573 40.0029 3.90243C40.3353 3.86913 40.6681 3.83998 41.0012 3.81499C41.3344 3.79 41.6678 3.76917 42.0014 3.7525C42.3351 3.73583 42.6689 3.72333 43.0029 3.715Z" fill="white"/>
<path d="M26.798 31.2552C27.4949 31.1557 28.3009 31.3576 28.9326 31.6446C30.1542 32.1997 30.8723 33.1558 31.3363 34.3842C32.0003 34.6075 32.6218 34.8513 33.1298 35.3518C33.7642 35.9768 34.0969 36.7929 34.0959 37.6808C34.0949 38.5187 33.8265 39.3016 33.2225 39.897C32.1635 40.9409 30.8907 40.8176 29.519 40.8138L27.0059 40.8107L24.3195 40.8118C23.5677 40.8123 22.7446 40.8764 22.0107 40.7015C21.8881 40.6719 21.7676 40.6351 21.6494 40.5911C21.5311 40.5472 21.4158 40.4964 21.3035 40.4389C21.1912 40.3814 21.0826 40.3175 20.9779 40.2471C20.8731 40.1768 20.7729 40.1005 20.6772 40.0183C20.0386 39.4647 19.6805 38.6507 19.6298 37.8138C19.6262 37.7587 19.624 37.7036 19.6231 37.6484C19.6222 37.5932 19.6227 37.538 19.6246 37.4828C19.6265 37.4277 19.6297 37.3726 19.6343 37.3176C19.639 37.2625 19.6449 37.2077 19.6523 37.153C19.6596 37.0983 19.6683 37.0438 19.6783 36.9895C19.6884 36.9352 19.6998 36.8812 19.7126 36.8275C19.7253 36.7738 19.7394 36.7205 19.7548 36.6675C19.7702 36.6144 19.7869 36.5618 19.8049 36.5096C19.8229 36.4575 19.8423 36.4058 19.8628 36.3546C19.8834 36.3034 19.9053 36.2527 19.9284 36.2025C19.9515 36.1524 19.9759 36.1029 20.0014 36.054C20.027 36.005 20.0538 35.9568 20.0818 35.9092C20.1097 35.8616 20.1389 35.8148 20.1693 35.7686C20.1996 35.7225 20.231 35.6772 20.2635 35.6326C20.2961 35.588 20.3298 35.5443 20.3645 35.5014C20.3993 35.4585 20.4351 35.4165 20.4719 35.3754C21.1306 34.6465 21.9469 34.3557 22.909 34.3133C23.092 33.7896 23.3479 33.3255 23.6998 32.8951C24.496 31.9211 25.5551 31.3843 26.798 31.2552Z" fill="#EE6352"/>
<path d="M26.6489 31.8964C27.4196 31.8226 28.1529 31.9229 28.8491 32.2777C29.9542 32.841 30.5197 33.8128 30.8883 34.9521C31.555 35.0911 32.1372 35.2683 32.6504 35.7366C32.6825 35.766 32.7138 35.7961 32.7444 35.8269C32.7751 35.8578 32.8049 35.8895 32.8339 35.9219C32.8629 35.9543 32.891 35.9874 32.9184 36.0212C32.9457 36.055 32.9722 36.0895 32.9978 36.1246C33.0235 36.1597 33.0481 36.1955 33.0719 36.2319C33.0958 36.2683 33.1186 36.3052 33.1406 36.3428C33.1625 36.3803 33.1835 36.4184 33.2036 36.4569C33.2236 36.4956 33.2427 36.5346 33.2607 36.5742C33.2788 36.6137 33.2959 36.6537 33.3119 36.6941C33.328 36.7345 33.3431 36.7753 33.3571 36.8164C33.3711 36.8576 33.3841 36.8991 33.396 36.9409C33.408 36.9827 33.4189 37.0248 33.4286 37.0672C33.4384 37.1095 33.4472 37.1521 33.4549 37.1949C33.4625 37.2377 33.4692 37.2807 33.4747 37.3238C33.4802 37.3669 33.4846 37.4102 33.4879 37.4536C33.4913 37.4969 33.4936 37.5403 33.4947 37.5838C33.5158 38.2557 33.2899 38.9389 32.8129 39.4226C32.7735 39.4619 32.7328 39.5 32.691 39.5368C32.6491 39.5735 32.6061 39.6088 32.5619 39.6428C32.5177 39.6768 32.4725 39.7093 32.4262 39.7404C32.38 39.7714 32.3327 39.8009 32.2846 39.829C32.2364 39.857 32.1874 39.8834 32.1375 39.9082C32.0876 39.9331 32.037 39.9563 31.9856 39.9778C31.9342 39.9994 31.8822 40.0193 31.8295 40.0374C31.7769 40.0557 31.7237 40.0722 31.6699 40.0869C30.8648 40.3018 28.1676 40.1795 27.21 40.1749L24.1565 40.1726C23.521 40.1722 22.8095 40.2414 22.1885 40.1044C21.7582 40.0094 21.3494 39.7853 21.0286 39.4844C20.5204 39.0077 20.2616 38.3507 20.2545 37.6596C20.247 36.922 20.5212 36.2266 21.0463 35.7065C21.7031 35.0563 22.4171 34.9185 23.3149 34.9238C23.5031 34.4018 23.7179 33.9064 24.0478 33.4564C24.691 32.5791 25.5811 32.0628 26.6489 31.8964Z" fill="white"/>
<path d="M65.9391 22.1423C66.6358 22.0392 67.4375 22.1738 68.0861 22.4364C69.4016 22.9689 70.1845 23.9383 70.7298 25.2124C71.521 25.4011 72.2058 25.6243 72.8023 26.2026C73.4418 26.8227 73.848 27.6589 73.8576 28.5568C73.8579 28.6124 73.8569 28.6681 73.8546 28.7237C73.8522 28.7793 73.8484 28.8348 73.8432 28.8902C73.8381 28.9457 73.8316 29.0009 73.8236 29.056C73.8158 29.1111 73.8066 29.166 73.796 29.2207C73.7853 29.2753 73.7733 29.3296 73.7601 29.3837C73.7468 29.4377 73.7321 29.4914 73.7161 29.5447C73.7002 29.598 73.6829 29.6509 73.6642 29.7034C73.6457 29.7558 73.6258 29.8078 73.6046 29.8593C73.5834 29.9107 73.5609 29.9616 73.5372 30.012C73.5136 30.0623 73.4886 30.1121 73.4625 30.1613C73.4363 30.2104 73.4089 30.2588 73.3803 30.3066C73.3517 30.3543 73.322 30.4013 73.2911 30.4476C73.2602 30.4939 73.2281 30.5394 73.1949 30.5841C73.1618 30.6288 73.1275 30.6727 73.0921 30.7156C73.0568 30.7586 73.0204 30.8007 72.983 30.8419C72.9455 30.8831 72.9071 30.9233 72.8677 30.9626C71.8741 31.9574 70.7589 31.8843 69.453 31.884L67.1387 31.8836L63.9176 31.8875C63.1933 31.8878 62.3816 31.9586 61.6729 31.7986C61.2455 31.7021 60.8288 31.4935 60.477 31.2342C60.4326 31.2018 60.3891 31.1683 60.3465 31.1337C60.3038 31.0991 60.262 31.0635 60.2212 31.0268C60.1803 30.9902 60.1403 30.9525 60.1013 30.9139C60.0623 30.8752 60.0243 30.8356 59.9873 30.7951C59.9503 30.7545 59.9143 30.7131 59.8793 30.6708C59.8443 30.6284 59.8104 30.5853 59.7776 30.5412C59.7448 30.4971 59.7131 30.4523 59.6825 30.4067C59.652 30.3611 59.6225 30.3148 59.5942 30.2677C59.566 30.2206 59.5389 30.1729 59.513 30.1245C59.4871 30.076 59.4624 30.027 59.439 29.9774C59.4155 29.9277 59.3933 29.8775 59.3724 29.8267C59.3514 29.776 59.3318 29.7247 59.3134 29.673C59.295 29.6212 59.2779 29.5691 59.2621 29.5165C59.2463 29.4639 59.2318 29.4109 59.2187 29.3576C59.2055 29.3043 59.1937 29.2507 59.1832 29.1968C59.1728 29.1429 59.1636 29.0887 59.1558 29.0344C59.1481 28.981 59.1417 28.9275 59.1366 28.8738C59.1315 28.8202 59.1277 28.7664 59.1252 28.7125C59.1228 28.6587 59.1217 28.6048 59.122 28.5509C59.1223 28.497 59.1239 28.4431 59.1268 28.3893C59.1297 28.3355 59.134 28.2817 59.1396 28.2281C59.1452 28.1745 59.1521 28.1211 59.1604 28.0678C59.1686 28.0145 59.1782 27.9615 59.1892 27.9087C59.2001 27.8559 59.2123 27.8034 59.2258 27.7512C59.2393 27.699 59.2541 27.6472 59.2701 27.5958C59.2862 27.5443 59.3036 27.4933 59.3222 27.4427C59.3408 27.3921 59.3607 27.342 59.3819 27.2924C59.403 27.2428 59.4253 27.1938 59.4489 27.1453C59.4724 27.0968 59.4972 27.049 59.5231 27.0017C59.5491 26.9544 59.5762 26.9078 59.6044 26.862C59.6327 26.816 59.662 26.7708 59.6925 26.7263C59.7231 26.6819 59.7546 26.6382 59.7873 26.5954C60.3908 25.816 61.3062 25.335 62.2781 25.2101C62.4475 24.7391 62.6647 24.2993 62.9588 23.8932C63.693 22.8794 64.7169 22.3311 65.9391 22.1423Z" fill="#EE6352"/>
<path d="M66.1692 22.7457C66.5129 22.7162 66.8767 22.7546 67.2133 22.8264C68.2385 23.0448 69.1917 23.7009 69.7125 24.6193C69.9141 24.9748 70.0466 25.3673 70.2732 25.7089C70.2818 25.7219 70.2909 25.7347 70.2996 25.7476C71.0785 26.0564 71.6794 25.9747 72.3587 26.6119C72.3916 26.6423 72.4238 26.6734 72.4551 26.7053C72.4865 26.7372 72.517 26.77 72.5467 26.8034C72.5764 26.8369 72.6052 26.8711 72.6332 26.906C72.6611 26.941 72.6882 26.9766 72.7144 27.0129C72.7405 27.0493 72.7657 27.0862 72.79 27.1238C72.8143 27.1614 72.8376 27.1996 72.8599 27.2384C72.8822 27.2772 72.9036 27.3165 72.9239 27.3563C72.9442 27.3962 72.9636 27.4366 72.9819 27.4774C73.0002 27.5183 73.0174 27.5595 73.0336 27.6013C73.0499 27.643 73.065 27.6851 73.079 27.7276C73.0931 27.7701 73.1061 27.8129 73.118 27.8561C73.1299 27.8992 73.1407 27.9426 73.1503 27.9863C73.16 28.03 73.1686 28.0739 73.176 28.118C73.1835 28.1621 73.1898 28.2064 73.195 28.2509C73.2003 28.2953 73.2043 28.3399 73.2073 28.3846C73.2103 28.4292 73.2121 28.4739 73.2127 28.5186C73.2279 29.2607 72.9637 29.971 72.4394 30.5005C72.1311 30.8118 71.7312 31.061 71.3054 31.1707C70.7032 31.3256 69.9875 31.2444 69.3676 31.2426L66.8809 31.2392L63.7452 31.2319C63.1096 31.2324 62.4217 31.3022 61.7978 31.1739C61.7022 31.1542 61.608 31.1292 61.5153 31.0989C61.4225 31.0685 61.3317 31.033 61.243 30.9924C61.1543 30.9517 61.0681 30.9061 60.9846 30.8555C60.9011 30.8051 60.8207 30.75 60.7434 30.6904C60.1978 30.2655 59.8729 29.6035 59.7865 28.9249C59.6204 27.6202 60.4428 26.462 61.6602 26.0375C61.9491 25.9367 62.4559 25.9234 62.6859 25.7355C62.8772 25.5792 63.2203 24.6067 63.5236 24.2145C64.1786 23.3678 65.1174 22.8799 66.1692 22.7457Z" fill="white"/>
</g>
<defs>
<clipPath id="clip0_4125_770">
<rect width="88" height="88" fill="white"/>
</clipPath>
</defs>
</svg>
